<svg width="241" height="179" viewBox="0 0 241 179" fill="none" xmlns="http://www.w3.org/2000/svg">
<path d="M216.02 1.27C212.19 2.38 210.43 4.63 208.93 8.09C199.06 33.08 172.6 101.87 163.61 124.9C160.74 132.13 159.89 134.23 156.44 122.41C151.12 104.74 144.83 83.53 139.91 67.07C135.56 52.91 132.53 40.66 125.86 27.67C115.14 5.71 88.89 -0.550001 65.83 0.119999C55.63 0.169999 45.22 0.439999 35.4 3.09C9.94005 9.46 -5.06995 38.26 4.46005 62.87C12.12 83.18 33.37 92.35 51.95 101.38C64.68 107.2 78.56 117.95 75.73 133.07C73.15 148.16 53.68 151.91 43.18 142.2C37.98 137.65 35.59 131.26 30.99 127.23C24.19 121.24 12.51 119.78 4.48005 124.67C-2.59995 128.96 0.140047 138.62 3.01005 145.38C11.9 167.38 35.54 178.47 58.84 178.02C97.93 178.4 123.46 146.64 109.36 109.45C101.83 90.05 81.71 79.39 63.53 71.2C55.72 67.41 47.01 63.07 42.34 55.64C38.63 49.8 38.43 42.31 43 37.07C51.79 27.71 69.31 28.06 80.64 31.3C96.47 35.97 99.21 53.79 103.89 67.32C111.92 91.12 128.13 139.99 137.84 168.44C139.72 174.07 143.58 177.74 149.23 178.3C154.69 179.13 163.02 179.05 168.83 178.64C174.03 178.11 177.32 177.48 179.81 173.4C190.45 146.97 223.19 53.51 237.78 14.23C238.68 10.45 243.24 3.67 239.27 1.54C235.23 -0.370001 222.89 -0.500001 216.22 1.23L216.02 1.29V1.27Z" fill="#22C55E"/>
</svg>
